<?xml version="1.0" encoding="utf-8"?>
<!-- Generator: Adobe Illustrator 27.5.0, SVG Export Plug-In . SVG Version: 6.00 Build 0)  -->
<svg version="1.1" xmlns="http://www.w3.org/2000/svg" xmlns:xlink="http://www.w3.org/1999/xlink" x="0px" y="0px"
	 viewBox="0 0 500 500" style="enable-background:new 0 0 500 500;" xml:space="preserve">
<g id="BACKGROUND">
	<rect style="fill:#AEDBE7;" width="500" height="500"/>
</g>
<g id="OBJECTS">
	<g>
		<g>
			<path style="fill:#FFFFFF;" d="M240.737,178.57c-1.64,0-3.178,0.43-4.514,1.178c0.002-0.083,0.013-0.165,0.013-0.248
				c0-7.087-5.745-12.833-12.833-12.833c-3.2,0-6.12,1.179-8.367,3.116C211.409,162.222,203.684,157,194.737,157
				c-10.219,0-18.84,6.814-21.583,16.144c-1.242-0.368-2.555-0.573-3.916-0.573c-6.13,0-11.317,4.009-13.099,9.546
				c-0.677-0.364-1.439-0.59-2.263-0.59c-2.655,0-4.807,2.152-4.807,4.807c0,2.655,2.151,4.807,4.807,4.807
				c0.823,0,1.586-0.226,2.263-0.59c1.781,5.537,6.969,9.546,13.099,9.546c3.936,0,7.477-1.661,9.984-4.309
				c4.037,3.847,9.498,6.213,15.515,6.213c5.573,0,10.668-2.03,14.599-5.386c2.516,3.27,6.457,5.386,10.902,5.386
				c5.895,0,10.908-3.712,12.869-8.919c1.671,2.424,4.463,4.015,7.63,4.015c5.116,0,9.263-4.147,9.263-9.263
				C250,182.717,245.854,178.57,240.737,178.57z"/>
			<path style="fill:#FFFFFF;" d="M164.071,67.903c-1.64,0-3.178,0.43-4.514,1.178c0.002-0.084,0.013-0.165,0.013-0.248
				c0-7.087-5.745-12.833-12.833-12.833c-3.2,0-6.12,1.179-8.367,3.116c-3.627-7.562-11.353-12.783-20.299-12.783
				c-10.219,0-18.84,6.813-21.583,16.144c-1.242-0.368-2.555-0.573-3.916-0.573c-6.13,0-11.317,4.009-13.099,9.546
				c-0.677-0.364-1.439-0.59-2.263-0.59c-2.655,0-4.807,2.152-4.807,4.807s2.151,4.807,4.807,4.807c0.823,0,1.586-0.226,2.263-0.59
				c1.781,5.537,6.969,9.546,13.099,9.546c3.936,0,7.477-1.661,9.984-4.309c4.037,3.847,9.498,6.213,15.515,6.213
				c5.573,0,10.668-2.03,14.599-5.386c2.516,3.269,6.457,5.386,10.902,5.386c5.895,0,10.908-3.712,12.869-8.919
				c1.671,2.424,4.463,4.015,7.63,4.015c5.116,0,9.263-4.147,9.263-9.263S169.187,67.903,164.071,67.903z"/>
			<path style="fill:#FFFFFF;" d="M437.5,329.305c-1.639,0-3.178,0.43-4.514,1.178c0.002-0.084,0.014-0.165,0.014-0.248
				c0-7.088-5.746-12.834-12.834-12.834c-3.199,0-6.119,1.18-8.367,3.117c-3.627-7.563-11.352-12.783-20.299-12.783
				c-10.219,0-18.84,6.813-21.582,16.143c-1.242-0.367-2.555-0.572-3.916-0.572c-6.131,0-11.318,4.008-13.1,9.545
				c-0.676-0.363-1.439-0.59-2.262-0.59c-2.656,0-4.807,2.152-4.807,4.807c0,2.655,2.15,4.808,4.807,4.808
				c0.822,0,1.586-0.226,2.262-0.591c1.781,5.537,6.969,9.547,13.1,9.547c3.935,0,7.476-1.661,9.984-4.309
				c4.037,3.846,9.498,6.213,15.514,6.213c5.574,0,10.668-2.031,14.6-5.387c2.516,3.27,6.457,5.387,10.902,5.387
				c5.894,0,10.908-3.713,12.869-8.92c1.67,2.424,4.463,4.016,7.629,4.016c5.117,0,9.264-4.148,9.264-9.264
				C446.764,333.451,442.617,329.305,437.5,329.305z"/>
			<path style="fill:#FFFFFF;" d="M134.5,306.805c-1.639,0-3.178,0.43-4.514,1.178c0.002-0.084,0.014-0.165,0.014-0.248
				c0-7.088-5.746-12.834-12.834-12.834c-3.199,0-6.119,1.18-8.367,3.117c-3.627-7.563-11.352-12.783-20.299-12.783
				c-10.219,0-18.84,6.813-21.582,16.143c-1.242-0.367-2.555-0.572-3.916-0.572c-6.131,0-11.318,4.008-13.1,9.545
				c-0.676-0.363-1.439-0.59-2.262-0.59c-2.656,0-4.807,2.152-4.807,4.807c0,2.655,2.15,4.808,4.807,4.808
				c0.822,0,1.586-0.226,2.262-0.591c1.781,5.537,6.969,9.547,13.1,9.547c3.936,0,7.477-1.661,9.984-4.309
				c4.037,3.846,9.498,6.213,15.514,6.213c5.574,0,10.668-2.031,14.6-5.387c2.516,3.27,6.457,5.387,10.902,5.387
				c5.895,0,10.908-3.713,12.869-8.92c1.67,2.424,4.463,4.016,7.629,4.016c5.117,0,9.264-4.148,9.264-9.264
				C143.764,310.951,139.617,306.805,134.5,306.805z"/>
			<path style="fill:#FFFFFF;" d="M423.5,120.57c-1.64,0-3.178,0.43-4.514,1.178c0.002-0.083,0.013-0.164,0.013-0.248
				c0-7.087-5.745-12.833-12.833-12.833c-3.2,0-6.12,1.179-8.367,3.116C394.172,104.222,386.446,99,377.5,99
				c-10.219,0-18.84,6.813-21.583,16.144c-1.242-0.368-2.555-0.573-3.916-0.573c-6.13,0-11.317,4.009-13.099,9.546
				c-0.677-0.364-1.439-0.59-2.263-0.59c-2.655,0-4.807,2.152-4.807,4.807c0,2.655,2.151,4.807,4.807,4.807
				c0.823,0,1.586-0.226,2.263-0.59c1.781,5.537,6.969,9.546,13.099,9.546c3.935,0,7.477-1.661,9.984-4.309
				c4.037,3.847,9.498,6.213,15.515,6.213c5.573,0,10.668-2.03,14.599-5.386c2.516,3.27,6.457,5.386,10.902,5.386
				c5.894,0,10.908-3.712,12.869-8.919c1.671,2.424,4.463,4.015,7.63,4.015c5.116,0,9.263-4.147,9.263-9.263
				C432.763,124.717,428.616,120.57,423.5,120.57z"/>
		</g>
		<g>
			<defs>
				<rect id="SVGID_1_" width="500" height="500"/>
			</defs>
			<clipPath id="SVGID_00000077300728661496457060000005767230245418602134_">
				<use xlink:href="#SVGID_1_"  style="overflow:visible;"/>
			</clipPath>
			<g style="clip-path:url(#SVGID_00000077300728661496457060000005767230245418602134_);">
				<g>
					<polygon style="fill:#00A19B;" points="542.22,514.304 249.929,222.013 -42.363,514.304 					"/>
					<path style="fill:#D6EDF3;" d="M329.279,405.592l49.7-54.526l-129.05-129.052L89.416,382.524
						c8.302,1.75,16.454,3.515,24.035,5.848C184.54,405.297,258.813,385.072,329.279,405.592z"/>
					<polygon style="fill:#00736F;" points="416.598,514.304 249.929,222.013 -42.363,514.304 					"/>
					<polygon style="fill:#ABDAE6;" points="249.929,222.013 131.719,340.223 344.868,388.51 					"/>
					<polygon style="fill:#015D5A;" points="198.324,514.304 249.929,222.013 -42.363,514.304 					"/>
					<polygon style="fill:#66BCD1;" points="51.597,420.346 225.253,361.772 249.929,222.013 					"/>
				</g>
				<g>
					<g>
						<path style="fill:#FE5B4C;" d="M211.549,46.706c0,0,18.224,3.574,26.535,13.098c10.795,12.37,23.707,13.803,28.204,10.805
							c-8.096,22.038-11.699,25.715-11.699,25.715s-18.817,6.22-28.497-8.358c-9.162-13.797-23.066-10.676-23.066-10.676
							S213.948,58.399,211.549,46.706z"/>
						<g>
							
								<rect x="169.912" y="75.555" transform="matrix(0.2582 -0.9661 0.9661 0.2582 77.0283 252.63)" style="fill:#7A3C13;" width="66.226" height="1.199"/>
						</g>
					</g>
					<g>
						<g>
							<g>
								<polygon style="fill:#F6B78E;" points="256.333,223.429 256.285,228.004 260.873,229.882 261.136,222.811 								"/>
								<path style="fill:#172942;" d="M256.219,226.018c0,0-3.913,1.136-3.641,4.247c2.399,1.928,3.669,2.686,3.669,2.686
									l0.751-1.451c0,0,3.858,6.935,10.279,8.776c0.664-0.029,3.203-0.743-0.845-3.817c-4.048-3.076-5.23-6.796-5.23-6.796
									S256.448,227.671,256.219,226.018z"/>
							</g>
							<path style="fill:#137C7C;" d="M263.073,161.063c0,0,2.28,26.12,1.403,34.29c-0.877,8.167-2.422,30.143-2.422,30.143
								l-5.96-0.729c0,0-1.505-21.506,0.19-29.415c-0.886-0.183-7.802-32.222-7.802-32.222L263.073,161.063z"/>
						</g>
						<g>
							<g>
								<polygon style="fill:#F6B78E;" points="243.376,223.429 243.424,228.004 238.835,229.882 238.573,222.811 								"/>
								<path style="fill:#172942;" d="M243.491,226.018c0,0,3.913,1.136,3.639,4.247c-2.399,1.928-3.668,2.686-3.668,2.686
									l-0.751-1.451c0,0-3.858,6.935-10.279,8.776c-0.665-0.029-3.203-0.743,0.844-3.817c4.048-3.076,5.231-6.796,5.231-6.796
									S243.262,227.671,243.491,226.018z"/>
							</g>
							<path style="fill:#137C7C;" d="M236.635,161.063c0,0-2.279,26.12-1.403,34.29c0.878,8.167,2.423,30.143,2.423,30.143
								l5.959-0.729c0,0,1.505-21.506-0.189-29.415c0.885-0.183,7.8-32.222,7.8-32.222L236.635,161.063z"/>
						</g>
						<path style="fill:#144C6F;" d="M249.094,112.936c0,0-7.889,0.882-11.046,4.432c0.132,5.786-6.484,36.755-1.572,45.597
							c10.345,3.332,26.72,0.453,26.72,0.453s5.022-10.57,0.272-42.855C263.061,117.802,255.755,112.081,249.094,112.936z"/>
						<g>
							<path style="fill:#F6B78E;" d="M297.655,103.469c0,0,1.184-1.007,1.053-2.772c-0.133-1.765-0.789-3.605,1.117-4.657
								c1.908-1.052,3.747,0.033,3.747,0.033c1.118-0.922,1.645,1.414,1.775,2.465c0.133,1.051-1.38,3.222-2.695,4.405
								c-1.315,1.184-2.564,2.829-2.564,2.829L297.655,103.469z"/>
							<path style="fill:#144C6F;" d="M259.256,115.918c0,0,20.123,7.89,23.104,7.538c2.98-0.35,10.345-19.46,15.254-20.512
								c3.155,1.404,4.559,2.455,4.559,2.455s-7.891,23.32-18.06,27.877c-10.167,4.557-22.617-4.734-22.617-4.734L259.256,115.918z"
								/>
						</g>
						<g>
							<path style="fill:#F6B78E;" d="M202.203,103.07c0,0-1.183-1.006-1.052-2.772c0.132-1.765,0.788-3.605-1.117-4.657
								c-1.908-1.052-3.747,0.033-3.747,0.033c-1.118-0.922-1.646,1.414-1.777,2.465c-0.132,1.051,1.381,3.221,2.696,4.404
								c1.315,1.184,2.564,2.829,2.564,2.829L202.203,103.07z"/>
							<path style="fill:#144C6F;" d="M240.604,115.518c0,0-20.125,7.89-23.105,7.538c-2.981-0.35-10.346-19.46-15.254-20.512
								c-3.155,1.404-4.558,2.455-4.558,2.455s7.89,23.321,18.06,27.877c10.167,4.557,22.616-4.734,22.616-4.734L240.604,115.518z"
								/>
						</g>
						<path style="fill:#F4F4F4;" d="M252.16,115.918l-2.795,3.496c0,0-2.931-2.367-2.926-4.8c0.003-0.758,2.303-2.941,4.931-2.418
							c2.631,0.523,4.436,0.612,5.681,2.848c1.244,2.235-1.078,4.566-1.078,4.566L252.16,115.918z"/>
						<g>
							<path style="fill:#F6B78E;" d="M248.019,107.612c0,0,0.196,5.457-0.396,7.429c4.47,1.446,6.772,0.854,7.956,0
								c-0.461-1.71,0-5.93,0-5.93L248.019,107.612z"/>
							<g>
								<path style="fill:#F6B78E;" d="M255.096,91.81c0,0,2.455,6.005,1.863,11.989c-0.591,5.982-2.434,6.969-4.206,6.969
									c-1.776,0-6.509-2.894-7.299-5.984c-1.314,1.183-4.077-4.076-0.92-4.076C244.6,97.091,247.713,87.251,255.096,91.81z"/>
								<path style="fill:#262728;" d="M256.631,89.531c0,0-0.92,3.375-3.506,3.99c-1.316,0.307-6.488,0.877-6.838,2.325
									c-0.35,1.446,0.964,2.452,0.438,3.635c-0.524,1.185-0.393,2.237-0.043,3.025c0.35,0.789,1.314,3.814,3.111,4.647
									c1.798,0.833,2.839-2.303,4.503-2.039c1.666,0.262,1.51,2.039,2.471,0.199c0.085,4.163,0.784,5.829,0.784,5.829
									s-6.617,1.841-8.896,0.657c-2.28-1.183-2.5-6.575-2.762-7.89c-0.262-1.315-0.898-3.496-2.319-2.946
									c-0.615-2.367-4.037-6.828-0.136-8.406c-1.271-0.745,2.192-6.356,7.057-4.032C255.36,90.848,256.631,89.531,256.631,89.531z
									"/>
							</g>
						</g>
					</g>
					<g>
						
							<rect x="190.724" y="102.636" transform="matrix(0.2582 -0.9661 0.9661 0.2582 45.5155 265.7488)" style="fill:#7A3C13;" width="10.177" height="1.199"/>
					</g>
				</g>
				<g>
					<g>
						<g>
							<polygon style="fill:#F6B78E;" points="455.265,578.986 456.97,584.204 452.344,584.648 450.935,578.521 							"/>
							<path style="fill:#474747;" d="M456.847,582.898c0,0,2.866,3.571,1.718,6.483c-2.544,0.409-3.811,0.363-3.811,0.363
								l-0.182-1.903c0,0-5.234,4.454-11.047,2.262c-0.536-0.442-2.403-2.735,1.834-3.25c4.234-0.515,6.315-3.458,6.315-3.458
								S456.164,584.393,456.847,582.898z"/>
						</g>
						<path style="fill:#233044;" d="M429.268,507.754c0,0-1.237,24.556,5.5,37.095c6.739,12.539,15.889,35.951,15.889,35.951
							l6.545-0.628c0,0-4.561-28.93-12.298-38.772c-0.985-1.291-5.613-16.941,2.958-26.647c4.749-5.375,3.582-11.054,2.653-15.649
							C449.688,495.029,429.268,507.754,429.268,507.754z"/>
					</g>
					<g>
						<g>
							<polygon style="fill:#F6B78E;" points="439.223,554.808 442.57,559.158 438.356,561.119 434.988,555.812 							"/>
							<path style="fill:#474747;" d="M442.02,557.969c0,0,2.456,1.411,2.531,3.572c-2.261,1.232-6.478,7.789-12.691,7.659
								c-0.651-0.238-3.176-1.778,0.645-3.676c3.824-1.896,4.804-5.364,4.804-5.364S441.872,559.606,442.02,557.969z"/>
						</g>
						<path style="fill:#2E3D5A;" d="M428.89,500.734c0,0-34.612,16.467-24.081,26.045c10.532,9.577,30.675,31.274,30.675,31.274
							l5.962-2.772c0,0-13.94-25.758-24.515-32.46c-1.36-0.888,24.095-5.979,28.941-17.987c2.685-6.65-2.169-10.187-4.576-14.211
							C439.161,487.059,428.89,500.734,428.89,500.734z"/>
					</g>
					<g>
						<g>
							<polygon style="fill:#F6B78E;" points="423.865,456.26 428.049,459.816 424.336,462.612 419.934,458.126 							"/>
							<path style="fill:#474747;" d="M427.261,458.769c0,0,2.696,0.865,3.222,2.964c-1.953,1.678-4.711,8.971-10.813,10.142
								c-0.686-0.098-3.478-1.077-0.137-3.729c3.344-2.653,3.577-6.251,3.577-6.251S427.459,460.398,427.261,458.769z"/>
						</g>
						<path style="fill:#BA3636;" d="M403.435,410.484c0,0-25.974,19.947-15.055,26.617c10.922,6.668,32.504,22.376,32.504,22.376
							l4.487-3.38c0,0-17.159-20.251-27.52-24.403c-1.338-0.556,19.215-9.099,20.845-20.364c0.904-6.24-3.98-13.834-6.855-16.961
							C409.293,391.6,403.435,410.484,403.435,410.484z"/>
					</g>
					<g>
						<path style="fill:#F6B78E;" d="M424.824,425.81c0,0,0.194-0.911-0.374-2.474c0,0-3.176-3.371-3.207-5.436
							c-0.045-0.555,0.872-0.751,1.959,1.421c0.41,0.555,0.882,0.607,0.849-0.414c-0.099-3.224-0.88-4.657-0.268-6.82
							c0.617-2.164,5.395,0.454,6.026,6.577c0,0.002-0.001,0.005-0.001,0.006c0.097,1.09-0.608,3.107-1.147,4.463
							c-0.609,1.539-0.515,4.182-0.515,4.182L424.824,425.81z"/>
						<g>
							<path style="fill:#D8D8D8;" d="M429.86,477.109c0.466-2.544,4.147-16.669,4.179-27.377c0.01-2.819-1.767-22.677-5.502-25.553
								c-3.243-0.088-4.86,0.236-4.86,0.236s2.362,21.41,1.313,31.827c-1.22,12.135-9.472,18.921-3.535,19.33
								c2.048,0.142,3.368,4.982,4.439,3.23C426.775,477.365,429.522,478.959,429.86,477.109z"/>
						</g>
					</g>
					<g>
						<g>
							<g>
								<g>
									<path style="fill:#555656;" d="M417.204,461.147c0,0,3.518-2.406,8.203-0.112c11.06,5.712,22.82,26.254,26.715,37.229
										c-7.153,7.286-29.987,6.419-29.987,6.419s-8.052-21.142-8.626-23.702C412.934,478.423,411.287,463.342,417.204,461.147z"/>
								</g>
							</g>
						</g>
						<path style="fill:#7A3C13;" d="M440.102,447.001c0,0-12.2,13.847-14.945,16.363c-0.347-3.182,2.574-9.777,4.262-11.688
							C431.106,449.764,440.102,447.001,440.102,447.001z"/>
						<g>
							<path style="fill:#F6B78E;" d="M427.734,455.086c0,0-2.738,7.955-2.898,9.882c-4.405-0.271-8.725-1.083-9.467-2.236
								c0.991-1.338,1.838-5.663,1.838-5.663L427.734,455.086z"/>
							<g>
								<path style="fill:#F6B78E;" d="M421.507,441.505c0,0-0.892,0.4-2.684,3.696c-0.384,0.707-5.127,2.131-5.453,2.918
									c-0.069,0.171,2.745,1.783,2.68,1.96c-0.188,0.492-0.355,0.996-0.502,1.51c-1.535,5.436-0.264,6.931,1.287,7.542
									c1.553,0.609,8.25-0.165,10.003-2.597c0.743,1.487,4.964-2.165,2.202-3.247C430.227,450.1,429.527,440.051,421.507,441.505z
									"/>
								<path style="fill:#7A3C13;" d="M440.126,443.042c-3.798-7.496-11.774-10.764-16.136-10.196
									c-6.178,0.802-5.657,6.482-4.86,7.98c0.731,1.379,0.729,2.619,4.385,4.817c1.047,0.719,4.289,1.269,4.099,2.654
									c-0.191,1.385-1.685,1.813-1.633,3.03c0.055,1.215-0.423,2.09-1,2.662c-0.463,0.454-1.763,2.012-3.215,2.68l1.521,2.072
									c0.889-1.317,1.564-2.73,1.902-3.257c0.683-1.058,2.17-2.761,3.852-2.198C430.392,451.426,445.546,448.668,440.126,443.042z
									"/>
							</g>
						</g>
					</g>
					<g>
						<g>
							<polygon style="fill:#F6B78E;" points="417.686,460.856 421.87,464.412 418.158,467.208 413.756,462.723 							"/>
							<path style="fill:#DA4B47;" d="M421.083,463.364c0,0,2.696,0.866,3.221,2.965c-1.953,1.677-4.71,8.97-10.813,10.141
								c-0.686-0.098-3.477-1.076-0.137-3.73c3.344-2.652,3.577-6.249,3.577-6.249S421.28,464.995,421.083,463.364z"/>
						</g>
						<path style="fill:#DA4B47;" d="M396.291,410.133c0,0-30.41,23.33-18.112,30.497c12.301,7.167,36.528,24.181,36.528,24.181
							l5.252-3.955c0,0-19.012-22.28-30.752-26.626c-1.515-0.584,22.316-10.879,24.549-23.634c1.237-7.064-4.249-9.51-7.442-12.941
							C403.48,394.613,396.291,410.133,396.291,410.133z"/>
					</g>
					<g>
						<path style="fill:#F6B78E;" d="M295.277,270.072c0,0-0.431-0.826-1.865-1.669c0,0-4.594-0.579-5.933-2.149
							c-0.388-0.399,0.195-1.136,2.416-0.153c0.669,0.168,1.066-0.09,0.391-0.859c-2.127-2.424-3.643-3.032-4.547-5.091
							c-0.903-2.06,4.447-3.083,8.834,1.24c0,0.001,0.002,0.002,0.002,0.003c0.771,0.78,1.51,2.784,1.958,4.173
							c0.508,1.574,2.265,3.553,2.265,3.553L295.277,270.072z"/>
						<g>
							<path style="fill:#5782B5;" d="M336.995,277.668c-5.002,0.149-11.989,6.602-19.384,4.99
								c-2.755-0.6-15.797-16.364-20.509-16.206c-2.557,1.998-3.598,3.276-3.598,3.276s12.505,19.457,22.813,21.297
								c10.306,1.837,18.771,0.423,23.609-3.039c1.669-1.193,3.114-4.578,2.825-6.611
								C342.516,279.706,338.873,277.613,336.995,277.668z"/>
						</g>
					</g>
					<g>
						<g>
							<polygon style="fill:#F6B78E;" points="394.327,386.517 397.087,391.263 392.655,392.663 389.997,386.967 							"/>
							<path style="fill:#474747;" d="M396.693,390.013c0,0,3.549,2.895,3.031,5.98c-2.4,0.931-3.649,1.152-3.649,1.152
								l-0.575-1.824c0,0-4.189,5.448-10.33,4.519c-0.617-0.322-2.921-2.174,1.114-3.562c4.034-1.388,5.453-4.701,5.453-4.701
								S396.337,391.616,396.693,390.013z"/>
						</g>
						<path style="fill:#C4852A;" d="M354.031,322.282c0,0,3.917,24.273,13.125,35.129c9.208,10.857,23.044,31.842,23.044,31.842
							l6.27-1.979c0,0-10.5-27.342-20.121-35.352c-1.233-1.057-9.028-15.396-2.673-26.677c3.522-6.25,1.196-11.559-0.672-15.858
							C371.346,305.575,354.031,322.282,354.031,322.282z"/>
					</g>
					<g>
						<g>
							<g>
								<g>
									<g>
										<path style="fill:#487F13;" d="M377.267,366.221c0,0,0.987-2.155,6.051-0.889c12.007,3.276,26.058,22.583,32.159,32.503
											c-5.475,8.619-25.381,16.583-25.381,16.583s-14.895-23.037-15.991-25.421S371.939,369.603,377.267,366.221z"/>
									</g>
								</g>
							</g>
						</g>
					</g>
					<g>
						<path style="fill:#E5A37F;" d="M375.695,360.033c0,0-0.395,5.91-1.766,7.644c4.522,3.247,8.344,2.105,10.025,0.481
							c0.092-1.897-0.275-3.581-0.275-3.581L375.695,360.033z"/>
						<g>
							<path style="fill:#F6B78E;" d="M389.32,347.083c0,0,0.621,6.994-2.185,12.737c-2.805,5.745-5.234,5.991-7.232,5.275
								c-2.001-0.716-6.301-5.516-6.087-8.926c-1.905,0.656-3.139-5.716,0.419-4.445
								C375.602,348.133,382.631,339.548,389.32,347.083z"/>
							<path style="fill:#262728;" d="M391.865,345.421c0,0-2.244,3.003-5.377,2.576c-1.593-0.222-7.626-1.733-8.538-0.43
								c-0.913,1.306,0.211,2.843-0.805,3.811c-1.015,0.975-1.243,2.079-1.13,3.008c0.109,0.931,0.117,4.344,1.844,5.902
								c1.731,1.556,4.024-1.16,5.805-0.226c1.782,0.934,0.973,2.648,2.713,1.194c-1.393,4.195-1.199,6.145-1.199,6.145
								s-8.115-0.825-10.262-2.926c-2.145-2.102-0.466-7.585-0.293-9.003c0.175-1.422,0.237-3.86-1.56-3.882
								c0.155-2.613-2.107-8.454,2.853-8.458c-1.168-1.259,4.742-5.473,9.392-1.19C389.962,346.226,391.865,345.421,391.865,345.421
								z"/>
						</g>
					</g>
					<g>
						<path style="fill:#F6B78E;" d="M338.904,379.934c0,0-0.82-0.439-1.647-1.883c0,0-0.526-4.603-2.081-5.959
							c-0.395-0.393-1.137,0.181-0.183,2.414c0.161,0.672-0.101,1.065-0.861,0.381c-2.398-2.155-2.989-3.678-5.037-4.604
							c-2.049-0.929-3.134,4.409,1.134,8.847c0.004,0.001,0.005,0.001,0.005,0.002c0.771,0.778,2.768,1.542,4.149,2.005
							c1.569,0.527,3.526,2.307,3.526,2.307L338.904,379.934z"/>
						<path style="fill:#58991F;" d="M379.488,375.359c-4.648,1.853-9.002,10.31-16.498,11.334
							c-2.793,0.379-20.451-9.958-24.825-8.194c-1.716,2.755-2.254,4.311-2.254,4.311s18.417,13.992,28.729,12.185
							c10.314-1.807,17.778-6.037,21.139-10.95c1.159-1.693,1.358-5.369,0.389-7.179C385.37,375.38,381.232,374.663,379.488,375.359
							z"/>
					</g>
					<g>
						<g>
							<polygon style="fill:#F6B78E;" points="373.592,366.221 377.774,369.777 374.063,372.573 369.66,368.087 							"/>
							<path style="fill:#474747;" d="M376.987,368.728c0,0,2.696,0.865,3.221,2.965c-1.951,1.677-4.709,8.971-10.812,10.14
								c-0.687-0.096-3.477-1.075-0.137-3.729c3.344-2.652,3.576-6.25,3.576-6.25S377.185,370.359,376.987,368.728z"/>
						</g>
						<path style="fill:#D9992F;" d="M352.195,315.498c0,0-30.41,23.33-18.112,30.497c12.302,7.167,36.53,24.18,36.53,24.18
							l5.251-3.955c0,0-19.011-22.279-30.752-26.625c-1.515-0.586,22.315-10.879,24.548-23.634
							c1.237-7.065-4.248-9.511-7.442-12.942C359.387,299.978,352.195,315.498,352.195,315.498z"/>
					</g>
					<g>
						<g>
							<g>
								<g>
									<path style="fill:#26537F;" d="M332.201,279.632c0,0,2.938-3.087,8.001-1.82c12.008,3.276,27.797,20.91,33.898,30.829
										c-5.474,8.62-27.986,12.539-27.986,12.539s-12.288-18.994-13.386-21.378C331.632,297.42,326.875,283.015,332.201,279.632z"
										/>
								</g>
							</g>
						</g>
						<g>
							<path style="fill:#F6B78E;" d="M339.307,272.772c0,0,0.911,7.086,1.157,9.004c-4.365,0.655-8.759,0.762-9.726-0.21
								c0.69-1.517,0.615-5.922,0.615-5.922L339.307,272.772z"/>
							<g>
								<path style="fill:#F6B78E;" d="M332.309,259.525c0,0-0.788,0.578-1.853,4.174c-0.229,0.773-4.57,3.155-4.724,3.994
									c-0.031,0.183,3.058,1.172,3.03,1.356c-0.081,0.521-0.141,1.05-0.176,1.581c-0.366,5.638,1.19,6.835,2.834,7.107
									c1.645,0.271,6.476-1.686,7.682-4.43c1.038,1.297,4.402-3.154,1.476-3.637C341.073,266.308,339.849,256.429,332.309,259.525
									z"/>
								<path style="fill:#7A3C13;" d="M329.843,259.358c1.004,1.195,1.26,2.409,5.294,3.797c1.173,0.483,4.459,0.343,4.561,1.738
									c0.104,1.395-1.267,2.124-0.962,3.305c0.307,1.177,0.021,2.132-0.423,2.812c-0.445,0.677-1.802,3.332-3.596,3.829
									c-1.795,0.496-5.574-0.92-6.183-2.774c-2.349,2.531-3.929,5.496-3.929,5.496s8.163,2.509,10.455,1.76
									c2.294-0.747,3.323-5.712,3.768-6.892c0.447-1.177,1.371-3.104,2.601-2.374c0.934-2.103,8.822-3.26,2.348-7.631
									c1.292-0.495-4.622-9.066-11.44-9.383C327.273,252.808,328.75,258.06,329.843,259.358z"/>
							</g>
							<path style="fill:#7A3C13;" d="M328.122,268.715c0,0,2.681,0.92,3.149,3.147c0.47,2.227,1.788,1.607,1.788,1.607
								s-2.313,1.07-3.559-1.201c-0.656-0.919-1.29-0.613-1.735-1.397C327.319,270.093,327.59,269.153,328.122,268.715z"/>
						</g>
					</g>
					<g>
						<path style="fill:#F6B78E;" d="M303.185,310.591c0,0-0.933,0.032-2.373-0.798c0,0-2.772-3.709-4.799-4.099
							c-0.538-0.142-0.891,0.729,1.059,2.178c0.476,0.498,0.449,0.971-0.555,0.763c-3.156-0.653-4.434-1.671-6.671-1.44
							c-2.236,0.232-0.486,5.389,5.437,7.07c0.004,0,0.005,0,0.006,0c1.06,0.283,3.166-0.063,4.596-0.358
							c1.62-0.336,4.207,0.217,4.207,0.217L303.185,310.591z"/>
						<path style="fill:#5782B5;" d="M335.935,286.19c-3.081,3.942-2.58,13.442-8.54,18.101c-2.223,1.737-22.684,1.704-25.572,5.432
							c-0.096,3.245,0.224,4.859,0.224,4.859s22.961,2.808,30.958-3.95c7.996-6.758,12.313-14.173,12.741-20.108
							c0.147-2.049-1.532-5.322-3.282-6.396C341.027,283.244,337.09,284.711,335.935,286.19z"/>
					</g>
					<g>
						<path style="fill:#F6B78E;" d="M391.287,448.539c0,0-0.271-0.892,0.159-2.497c0,0,2.869-3.635,2.722-5.693
							c-0.002-0.559-0.933-0.673-1.829,1.584c-0.359,0.589-0.823,0.684-0.882-0.339c-0.182-3.22,0.473-4.714-0.328-6.816
							c-0.801-2.1-5.331,0.921-5.428,7.078c0,0.002,0.001,0.002,0,0.004c0,1.096,0.876,3.043,1.532,4.347
							c0.743,1.479,0.876,4.122,0.876,4.122L391.287,448.539z"/>
						<path style="fill:#D8D8D8;" d="M423.31,473.887c-4.603-1.96-13.652,0.975-19.691-3.582
							c-2.25-1.698-7.495-21.476-11.844-23.304c-3.159,0.745-4.636,1.47-4.636,1.47s3.209,22.907,11.802,28.89
							c8.592,5.982,16.87,8.24,22.714,7.123c2.018-0.386,4.746-2.853,5.332-4.82C427.471,478.046,425.038,474.621,423.31,473.887z"
							/>
					</g>
				</g>
				<g>
					<g>
						<g>
							<polygon style="fill:#F6B78E;" points="148.628,402.998 145.181,407.271 149.348,409.327 152.839,404.1 							"/>
							<path style="fill:#474747;" d="M145.759,406.095c0,0-2.488,1.351-2.612,3.511c2.23,1.285,6.296,7.938,12.51,7.951
								c0.658-0.223,3.216-1.705-0.56-3.689c-3.779-1.984-4.678-5.475-4.678-5.475S145.868,407.732,145.759,406.095z"/>
						</g>
						<path style="fill:#BA3636;" d="M160.18,354.219c0,0,29.233,14.765,19.747,23.35c-9.489,8.584-27.771,28.035-27.771,28.035
							l-5.038-2.485c0,0,13.09-23.09,22.497-29.099c1.21-0.795-20.574-5.364-24.271-16.129c-2.051-5.963,1.335-14.334,3.578-17.942
							C150.91,336.755,160.18,354.219,160.18,354.219z"/>
					</g>
					<g>
						<g>
							<polygon style="fill:#F6B78E;" points="185.279,397.237 183.508,402.434 188.127,402.934 189.612,396.827 							"/>
							<path style="fill:#474747;" d="M183.648,401.131c0,0-1.873,2.123-1.249,4.194c2.537,0.442,8.64,5.294,14.479,3.175
								c0.541-0.435,2.435-2.706-1.792-3.273c-4.23-0.568-6.272-3.537-6.272-3.537S184.313,402.634,183.648,401.131z"/>
						</g>
						<path style="fill:#DA4B47;" d="M172.623,352.649c0,0,43.927-14.842,36.233,6.982c-4.733,13.426-18.993,39.477-18.993,39.477
							l-6.536-0.709c0,0,4.919-28.871,12.778-38.616c1.002-1.277-37.496,15.805-47.096,2.462c-4.189-5.822-3.829-14.842-0.673-19.79
							C150.571,338.951,172.623,352.649,172.623,352.649z"/>
					</g>
					<g>
						<path style="fill:#F6B78E;" d="M214.912,278.292c0,0,0.388-0.847,1.779-1.76c0,0,4.559-0.804,5.819-2.439
							c0.369-0.419-0.25-1.124-2.421-0.033c-0.659,0.199-1.069-0.038-0.431-0.841c2.005-2.525,3.489-3.206,4.29-5.308
							c0.799-2.102-4.594-2.859-8.764,1.674c0.001,0.001,0,0.002-0.001,0.003c-0.73,0.816-1.37,2.856-1.748,4.265
							c-0.431,1.599-2.087,3.661-2.087,3.661L214.912,278.292z"/>
						<g>
							<path style="fill:#EAEAEA;" d="M171.398,307.575c5.623-4.699,16.086-10.681,21.828-15.609
								c3.968-3.407,17.227-16.224,19.326-17.473c2.651,1.869,4.11,3.368,4.11,3.368s-13.979,16.883-21.452,24.215
								c-9.823,9.641-16.484,18.212-21.488,14.992c-1.726-1.108-7.348-2.147-7.159-4.191
								C166.717,311.197,169.958,308.778,171.398,307.575z"/>
						</g>
					</g>
					<g>
						<g>
							<g>
								<g>
									<g>
										<path style="fill:#555656;" d="M177.653,305.858c0,0-1.372-1.934-6.11,0.252c-11.188,5.454-21.399,27.04-25.547,37.921
											c6.983,7.451,28.023,11.569,28.023,11.569s10.347-25.406,10.981-27.953C185.634,325.103,183.518,308.19,177.653,305.858z"
											/>
									</g>
								</g>
							</g>
						</g>
					</g>
					<g>
						<path style="fill:#E5A37F;" d="M178.046,299.485c0,0,1.487,5.733,3.157,7.183c-3.839,4.032-7.806,3.62-9.761,2.339
							c-0.443-1.846-0.396-3.571-0.396-3.571L178.046,299.485z"/>
						<g>
							<path style="fill:#F6B78E;" d="M162.248,289.299c0,0,0.691,6.985,4.518,12.108c3.825,5.123,6.257,4.911,8.087,3.838
								c1.834-1.076,5.165-6.593,4.321-9.903c1.993,0.289,2.019-6.2-1.239-4.29C175.921,287.777,167.418,280.649,162.248,289.299z"
								/>
							<path style="fill:#262728;" d="M161.851,288.113c0,0,0.871,2.219,3.448,2.886c2.174-4.16,7.072-4.452,8.211-3.34
								c1.139,1.111,0.321,2.83,1.499,3.595c1.18,0.768,1.609,1.811,1.671,2.743c0.065,0.936,0.693,4.291-0.713,6.142
								c-1.411,1.853-5.469-2.469-7.045-1.219c-1.577,1.251,0.4,4.247-1.145,3.758c2.15,3.863,2.323,5.813,2.323,5.813
								s7.82-2.32,9.538-4.784c1.718-2.464-0.953-7.538-1.387-8.899c-0.436-1.364-0.952-3.749,0.81-4.104
								c-0.638-2.541,0.497-8.699-4.377-7.78c0.913-1.453-5.793-5.569-10.958-0.02C162.248,284.49,161.851,288.113,161.851,288.113z
								"/>
						</g>
					</g>
					<g>
						<path style="fill:#F6B78E;" d="M217.897,312.192c0,0,0.725-0.586,1.267-2.158c0,0-0.339-4.619,0.936-6.242
							c0.315-0.46,1.15-0.034,0.628,2.338c-0.033,0.69,0.298,1.027,0.917,0.214c1.957-2.564,2.252-4.171,4.093-5.461
							c1.84-1.295,3.9,3.749,0.531,8.901c-0.002,0.002-0.003,0.003-0.002,0.005c-0.614,0.907-2.432,2.029-3.704,2.741
							c-1.444,0.81-3.035,2.924-3.035,2.924L217.897,312.192z"/>
						<path style="fill:#EAEAEA;" d="M177.172,315.25c4.912,0.956,10.763,8.455,18.318,8.066
							c2.816-0.147,18.241-13.592,22.867-12.672c2.2,2.388,3.018,3.815,3.018,3.815s-15.491,17.175-25.96,17.319
							c-10.469,0.146-18.59-2.622-22.807-6.824c-1.454-1.448-2.334-5.023-1.718-6.98
							C171.396,316.365,175.329,314.892,177.172,315.25z"/>
					</g>
				</g>
				<g>
					<polygon style="fill:#00A19B;" points="322.613,514.304 113.571,305.262 -95.472,514.304 					"/>
					<path style="fill:#D6EDF3;" d="M170.322,436.555l35.546-38.997l-92.297-92.296L-1.226,420.057
						c5.938,1.253,11.768,2.513,17.189,4.181C66.806,436.344,119.924,421.878,170.322,436.555z"/>
					<polygon style="fill:#00736F;" points="232.771,514.304 113.571,305.262 -95.472,514.304 					"/>
					<polygon style="fill:#ABDAE6;" points="113.571,305.262 29.028,389.804 181.471,424.337 					"/>
					<polygon style="fill:#015D5A;" points="76.664,514.304 113.571,305.262 -95.472,514.304 					"/>
					<polygon style="fill:#66BCD1;" points="-28.274,447.104 95.923,405.215 113.571,305.262 					"/>
				</g>
				<path style="fill:#C45353;" d="M169.072,302.843c-0.059-0.046,0.8-1.148,0.8-2.024c1.698,0.725,3.448,0.426,3.448,0.426
					S171.906,305.026,169.072,302.843z"/>
				<path style="fill:#EAEAEA;" d="M169.072,302.843c-0.074,0.01,0.8-1.148,0.8-2.024c1.698,0.725,3.448,0.426,3.448,0.426
					S170.49,302.674,169.072,302.843z"/>
			</g>
		</g>
	</g>
</g>
<g id="DESIGNED_BY_FREEPIK">
	<g>
		<g id="XMLID_319_">
			<g id="XMLID_338_">
				<path id="XMLID_346_" style="fill:#F9FBFC;" d="M260.103,465.465c-0.432,0.443-0.803,0.932-1.107,1.453l-0.465-0.241
					c-0.068-0.297-0.35-0.502-0.66-0.466c-0.33,0.039-0.566,0.339-0.529,0.67c0.039,0.331,0.34,0.567,0.67,0.528
					c0.066-0.007,0.127-0.025,0.184-0.052l0.451,0.234c-0.25,0.554-0.432,1.139-0.539,1.743l0.748,0.132
					c0.229-1.306,0.85-2.507,1.791-3.473L260.103,465.465z"/>
				<path id="XMLID_345_" style="fill:#F9FBFC;" d="M265.592,463.163c-0.172,0-0.342,0.006-0.51,0.017l-0.074-0.626
					c0.188-0.149,0.297-0.389,0.266-0.645c-0.045-0.393-0.402-0.674-0.795-0.628c-0.393,0.046-0.674,0.402-0.627,0.796
					c0.029,0.254,0.189,0.461,0.404,0.564l0.072,0.624c-0.713,0.116-1.402,0.332-2.059,0.646l0.326,0.685
					c0.936-0.447,1.941-0.674,2.996-0.674c0.496,0,0.992,0.053,1.475,0.158l0.16-0.741
					C266.691,463.222,266.143,463.163,265.592,463.163z"/>
				<path id="XMLID_344_" style="fill:#F9FBFC;" d="M272.193,465.71c0.332-0.04,0.566-0.341,0.525-0.672
					c-0.039-0.331-0.34-0.566-0.672-0.525c-0.309,0.038-0.535,0.304-0.529,0.608l-0.416,0.363c-0.418-0.43-0.891-0.813-1.408-1.14
					l-0.404,0.642c1.135,0.715,2.021,1.727,2.564,2.925l0.69-0.313c-0.25-0.554-0.566-1.071-0.941-1.545l0.402-0.351
					C272.064,465.715,272.129,465.719,272.193,465.71z"/>
				<path id="XMLID_343_" style="fill:#F9FBFC;" d="M265.045,473.371c-0.387,0.023-0.775,0.035-1.158,0.035
					c-0.879,0-1.732-0.061-2.478-0.18c-0.391-0.062-0.846-0.154-1.27-0.292c1.047,1.861,3.068,3.125,5.389,3.125
					c2.855,0,5.262-1.916,5.949-4.503c-0.682,0.449-1.506,0.825-2.459,1.122C267.838,473.047,266.463,473.286,265.045,473.371z"/>
				<path id="XMLID_339_" style="fill:#F9FBFC;" d="M265.592,464.68c-3.352,0-6.08,2.666-6.08,5.943
					c0,0.425,0.047,0.849,0.137,1.261c0.674,0.483,2.707,0.891,5.348,0.731c2.881-0.174,5.297-0.958,6.672-2.159
					c-0.004-0.194-0.02-0.39-0.045-0.581C271.244,466.913,268.65,464.68,265.592,464.68z M263.432,471.194
					c-1.02,0-1.85-0.83-1.85-1.85c0-1.021,0.83-1.851,1.85-1.851c1.02,0,1.85,0.83,1.85,1.851
					C265.281,470.364,264.451,471.194,263.432,471.194z M268.17,470.286c-0.75,0-1.361-0.61-1.361-1.36s0.611-1.36,1.361-1.36
					s1.359,0.61,1.359,1.36S268.92,470.286,268.17,470.286z"/>
			</g>
			<path id="XMLID_336_" style="fill:#F9FBFC;" d="M281.596,466.547c-0.295-0.116-0.807-0.31-1.383-0.238
				c-0.551,0.069-0.844,0.341-0.844,1.007v0.866h2.229v1.717h-2.229v5.455h-1.932v-5.455h-1.34v-1.717h1.34v-0.889
				c0-1.68,0.895-2.782,2.568-2.782c0.643,0,1.156,0.121,1.59,0.308V466.547z"/>
			<path id="XMLID_334_" style="fill:#F9FBFC;" d="M286.297,469.878c-0.176-0.029-0.357-0.046-0.525-0.046
				c-0.894,0-1.51,0.548-1.51,1.613v3.908h-1.932v-7.172h1.873v0.784c0.451-0.673,1.139-0.977,2.02-0.977
				c0.414,0,0.848,0.128,1.096,0.337L286.297,469.878z"/>
			<path id="XMLID_331_" style="fill:#F9FBFC;" d="M293.965,471.757c0,0.222-0.016,0.488-0.037,0.651h-5.084
				c0.207,1.036,0.932,1.487,1.842,1.487c0.623,0,1.295-0.252,1.815-0.689l1.133,1.243c-0.814,0.748-1.852,1.089-3.057,1.089
				c-2.199,0-3.725-1.496-3.725-3.753c0-2.258,1.48-3.797,3.627-3.797C292.543,467.989,293.957,469.522,293.965,471.757z
				 M288.852,471.091h3.174c-0.178-0.918-0.732-1.436-1.561-1.436C289.555,469.654,289.021,470.202,288.852,471.091z"/>
			<path id="XMLID_328_" style="fill:#F9FBFC;" d="M301.619,471.757c0,0.222-0.016,0.488-0.037,0.651h-5.086
				c0.207,1.036,0.934,1.487,1.844,1.487c0.621,0,1.295-0.252,1.813-0.689l1.133,1.243c-0.814,0.748-1.85,1.089-3.057,1.089
				c-2.199,0-3.723-1.496-3.723-3.753c0-2.258,1.48-3.797,3.627-3.797C300.197,467.989,301.611,469.522,301.619,471.757z
				 M296.504,471.091h3.176c-0.178-0.918-0.734-1.436-1.563-1.436C297.207,469.654,296.674,470.202,296.504,471.091z"/>
			<path id="XMLID_325_" style="fill:#F9FBFC;" d="M309.965,471.764c0,2.154-1.496,3.775-3.473,3.775
				c-0.961,0-1.643-0.378-2.109-0.933v3.708h-1.924v-10.133h1.887v0.792c0.467-0.585,1.154-0.984,2.139-0.984
				C308.469,467.989,309.965,469.61,309.965,471.764z M304.287,471.764c0,1.133,0.748,1.977,1.844,1.977
				c1.139,0,1.85-0.881,1.85-1.977c0-1.095-0.711-1.976-1.85-1.976C305.035,469.788,304.287,470.632,304.287,471.764z"/>
			<path id="XMLID_322_" style="fill:#F9FBFC;" d="M313.068,465.835c0,0.696-0.541,1.23-1.236,1.23c-0.697,0-1.229-0.533-1.229-1.23
				c0-0.695,0.531-1.243,1.229-1.243C312.527,464.592,313.068,465.14,313.068,465.835z M312.809,475.353h-1.932v-7.172h1.932
				V475.353z"/>
			<path id="XMLID_320_" style="fill:#F9FBFC;" d="M316.031,470.735l2.703-2.554h2.367l-3.479,3.375l3.502,3.797h-2.377
				l-2.717-2.901v2.901H314.1v-10.658h1.932V470.735z"/>
		</g>
		<g>
			<path style="fill:#F9FBFC;" d="M184.412,475.289v-1.055c-0.527,0.718-1.392,1.23-2.388,1.23c-1.846,0-3.149-1.406-3.149-3.706
				c0-2.256,1.289-3.721,3.149-3.721c0.952,0,1.816,0.469,2.388,1.245v-3.765h1.099v9.771H184.412z M184.412,473.37v-3.208
				c-0.395-0.615-1.245-1.143-2.124-1.143c-1.421,0-2.271,1.172-2.271,2.739c0,1.567,0.85,2.725,2.271,2.725
				C183.167,474.483,184.017,473.985,184.412,473.37z"/>
			<path style="fill:#F9FBFC;" d="M186.932,471.744c0-2.051,1.465-3.706,3.486-3.706c2.139,0,3.397,1.67,3.397,3.794v0.278h-5.727
				c0.088,1.333,1.025,2.446,2.549,2.446c0.806,0,1.626-0.322,2.182-0.894l0.527,0.718c-0.703,0.703-1.654,1.084-2.811,1.084
				C188.44,475.465,186.932,473.956,186.932,471.744z M190.403,468.946c-1.509,0-2.256,1.274-2.314,2.358h4.644
				C192.718,470.25,192.015,468.946,190.403,468.946z"/>
			<path style="fill:#F9FBFC;" d="M194.606,474.352l0.571-0.791c0.469,0.542,1.362,1.011,2.329,1.011c1.084,0,1.67-0.513,1.67-1.216
				c0-1.714-4.38-0.659-4.38-3.281c0-1.099,0.952-2.036,2.637-2.036c1.201,0,2.051,0.454,2.622,1.025l-0.513,0.762
				c-0.425-0.513-1.201-0.894-2.109-0.894c-0.967,0-1.567,0.483-1.567,1.113c0,1.553,4.38,0.527,4.38,3.281
				c0,1.186-0.952,2.139-2.783,2.139C196.306,475.465,195.324,475.113,194.606,474.352z"/>
			<path style="fill:#F9FBFC;" d="M201.477,466.471c0-0.41,0.337-0.747,0.732-0.747c0.41,0,0.747,0.337,0.747,0.747
				c0,0.41-0.337,0.732-0.747,0.732C201.813,467.203,201.477,466.881,201.477,466.471z M201.667,475.289v-7.075h1.099v7.075H201.667
				z"/>
			<path style="fill:#F9FBFC;" d="M204.582,477.105l0.556-0.82c0.586,0.703,1.289,0.967,2.3,0.967c1.172,0,2.27-0.571,2.27-2.124
				v-1.011c-0.513,0.718-1.377,1.26-2.373,1.26c-1.846,0-3.15-1.377-3.15-3.662c0-2.271,1.289-3.677,3.15-3.677
				c0.952,0,1.802,0.469,2.373,1.245v-1.069h1.099v6.87c0,2.344-1.641,3.076-3.369,3.076
				C206.236,478.16,205.416,477.925,204.582,477.105z M209.708,473.253v-3.091c-0.381-0.615-1.23-1.143-2.109-1.143
				c-1.421,0-2.27,1.128-2.27,2.695c0,1.553,0.849,2.695,2.27,2.695C208.477,474.41,209.327,473.868,209.708,473.253z"/>
			<path style="fill:#F9FBFC;" d="M217.413,475.289v-4.629c0-1.245-0.63-1.641-1.582-1.641c-0.864,0-1.685,0.527-2.095,1.099v5.171
				h-1.099v-7.075h1.099v1.025c0.498-0.586,1.465-1.201,2.52-1.201c1.48,0,2.256,0.747,2.256,2.285v4.966H217.413z"/>
			<path style="fill:#F9FBFC;" d="M219.932,471.744c0-2.051,1.465-3.706,3.486-3.706c2.139,0,3.398,1.67,3.398,3.794v0.278h-5.727
				c0.088,1.333,1.025,2.446,2.548,2.446c0.806,0,1.626-0.322,2.183-0.894l0.527,0.718c-0.703,0.703-1.655,1.084-2.813,1.084
				C221.441,475.465,219.932,473.956,219.932,471.744z M223.403,468.946c-1.509,0-2.256,1.274-2.313,2.358h4.643
				C225.718,470.25,225.015,468.946,223.403,468.946z"/>
			<path style="fill:#F9FBFC;" d="M233.35,475.289v-1.055c-0.527,0.718-1.392,1.23-2.388,1.23c-1.846,0-3.149-1.406-3.149-3.706
				c0-2.256,1.289-3.721,3.149-3.721c0.952,0,1.816,0.469,2.388,1.245v-3.765h1.099v9.771H233.35z M233.35,473.37v-3.208
				c-0.395-0.615-1.245-1.143-2.124-1.143c-1.421,0-2.271,1.172-2.271,2.739c0,1.567,0.85,2.725,2.271,2.725
				C232.104,474.483,232.954,473.985,233.35,473.37z"/>
			<path style="fill:#F9FBFC;" d="M239.691,475.289v-9.771h1.099v3.765c0.571-0.776,1.421-1.245,2.388-1.245
				c1.846,0,3.149,1.465,3.149,3.721c0,2.3-1.304,3.706-3.149,3.706c-0.996,0-1.86-0.513-2.388-1.23v1.055H239.691z
				 M242.899,474.483c1.436,0,2.285-1.157,2.285-2.725c0-1.567-0.85-2.739-2.285-2.739c-0.864,0-1.729,0.527-2.109,1.143v3.208
				C241.171,473.985,242.035,474.483,242.899,474.483z"/>
			<path style="fill:#F9FBFC;" d="M247.528,477.061c0.161,0.073,0.425,0.117,0.601,0.117c0.483,0,0.806-0.161,1.055-0.747
				l0.469-1.069l-2.959-7.148h1.187l2.358,5.801l2.344-5.801h1.201l-3.545,8.511c-0.425,1.024-1.143,1.421-2.08,1.436
				c-0.234,0-0.601-0.044-0.806-0.104L247.528,477.061z"/>
		</g>
	</g>
</g>
</svg>
